<svg width="1728" height="83" viewBox="0 0 1728 83" fill="none" xmlns="http://www.w3.org/2000/svg">
<path d="M816.719 47.5937C822.378 47.5937 825.474 42.9042 825.474 38.8386C825.474 38.7068 825.471 38.572 825.465 38.4402C826.067 38.0046 826.587 37.4651 827 36.847C826.439 37.0966 825.844 37.2596 825.234 37.3304C825.876 36.9455 826.357 36.3409 826.587 35.6286C825.983 35.9866 825.322 36.2391 824.633 36.3754C824.169 35.8822 823.556 35.5557 822.887 35.4463C822.219 35.3368 821.533 35.4506 820.936 35.77C820.339 36.0894 819.864 36.5967 819.584 37.2133C819.304 37.8299 819.235 38.5216 819.387 39.1814C818.164 39.12 816.967 38.8023 815.875 38.2488C814.783 37.6953 813.819 36.9184 813.046 35.9684C812.653 36.6457 812.533 37.4472 812.709 38.21C812.886 38.9728 813.347 39.6396 813.998 40.075C813.509 40.0594 813.031 39.9279 812.604 39.6912V39.7293C812.603 40.4401 812.849 41.1291 813.299 41.6792C813.749 42.2293 814.376 42.6066 815.073 42.7468C814.62 42.8707 814.145 42.8887 813.684 42.7996C813.881 43.4109 814.263 43.9455 814.779 44.3289C815.294 44.7123 815.916 44.9253 816.558 44.9382C815.468 45.7944 814.121 46.2588 812.735 46.2566C812.49 46.2562 812.244 46.2412 812 46.2115C813.408 47.1148 815.046 47.5946 816.719 47.5937Z" fill="white"/>
<path d="M863.18 40.2925C862.752 40.2925 862.415 40.6675 862.415 41.125C862.415 41.5825 862.76 41.9575 863.18 41.9575C863.607 41.9575 863.945 41.5825 863.945 41.125C863.952 40.6675 863.607 40.2925 863.18 40.2925ZM865.917 40.2925C865.49 40.2925 865.152 40.6675 865.152 41.125C865.152 41.5825 865.497 41.9575 865.917 41.9575C866.345 41.9575 866.682 41.5825 866.682 41.125C866.682 40.6675 866.345 40.2925 865.917 40.2925Z" fill="white"/>
<path d="M869.562 34H859.512C858.665 34 857.975 34.69 857.975 35.545V45.685C857.975 46.54 858.665 47.23 859.512 47.23H868.017L867.62 45.8425L868.58 46.735L869.487 47.575L871.1 49V35.545C871.1 34.69 870.41 34 869.562 34ZM866.667 43.795C866.667 43.795 866.397 43.4725 866.172 43.1875C867.155 42.91 867.53 42.295 867.53 42.295C867.222 42.4975 866.93 42.64 866.667 42.7375C866.292 42.895 865.932 43 865.58 43.06C864.86 43.195 864.2 43.1575 863.637 43.0525C863.21 42.97 862.842 42.85 862.535 42.73C862.362 42.6625 862.175 42.58 861.987 42.475C861.965 42.46 861.942 42.4525 861.92 42.4375C861.905 42.43 861.897 42.4225 861.89 42.415C861.755 42.34 861.68 42.2875 861.68 42.2875C861.68 42.2875 862.04 42.8875 862.992 43.1725C862.767 43.4575 862.49 43.795 862.49 43.795C860.832 43.7425 860.202 42.655 860.202 42.655C860.202 40.24 861.282 38.2825 861.282 38.2825C862.362 37.4725 863.39 37.495 863.39 37.495L863.465 37.585C862.115 37.975 861.492 38.5675 861.492 38.5675C861.492 38.5675 861.657 38.4775 861.935 38.35C862.737 37.9975 863.375 37.9 863.637 37.8775C863.682 37.87 863.72 37.8625 863.765 37.8625C864.222 37.8025 864.74 37.7875 865.28 37.8475C865.992 37.93 866.757 38.14 867.537 38.5675C867.537 38.5675 866.945 38.005 865.67 37.615L865.775 37.495C865.775 37.495 866.802 37.4725 867.882 38.2825C867.882 38.2825 868.962 40.24 868.962 42.655C868.962 42.655 868.325 43.7425 866.667 43.795V43.795Z" fill="white"/>
<g clip-path="url(#clip0_1_305)">
<path fill-rule="evenodd" clip-rule="evenodd" d="M917 41.5C917 45.6421 913.642 49 909.5 49C905.358 49 902 45.6421 902 41.5C902 37.3579 905.358 34 909.5 34C913.642 34 917 37.3579 917 41.5ZM909.769 39.5368C909.039 39.8402 907.581 40.4682 905.395 41.4208C905.04 41.562 904.854 41.7001 904.837 41.8352C904.808 42.0634 905.094 42.1533 905.483 42.2757C905.536 42.2923 905.591 42.3096 905.647 42.3279C906.03 42.4524 906.546 42.598 906.813 42.6038C907.056 42.609 907.327 42.5089 907.627 42.3033C909.669 40.9244 910.724 40.2274 910.79 40.2124C910.837 40.2018 910.902 40.1884 910.945 40.2274C910.989 40.2664 910.985 40.3402 910.98 40.36C910.952 40.4807 909.83 41.5238 909.249 42.0636C909.068 42.2319 908.94 42.3513 908.914 42.3785C908.855 42.4396 908.795 42.4974 908.737 42.5529C908.382 42.8958 908.115 43.153 908.752 43.573C909.059 43.7748 909.304 43.9417 909.548 44.1082C909.815 44.2901 910.081 44.4714 910.426 44.6973C910.514 44.7548 910.598 44.8146 910.679 44.8728C910.99 45.0944 911.269 45.2934 911.614 45.2616C911.815 45.2432 912.022 45.0548 912.127 44.4927C912.375 43.1645 912.864 40.2865 912.976 39.1006C912.986 38.9967 912.974 38.8637 912.964 38.8054C912.954 38.747 912.933 38.6638 912.857 38.6022C912.767 38.5293 912.629 38.514 912.566 38.5151C912.284 38.52 911.852 38.6705 909.769 39.5368Z" fill="white"/>
</g>
<defs>
<clipPath id="clip0_1_305">
<rect width="15" height="15" fill="white" transform="translate(902 34)"/>
</clipPath>
</defs>
</svg>
