<svg width="12" height="24" viewBox="0 0 12 24" fill="none" xmlns="http://www.w3.org/2000/svg">
<path d="M0.336852 0.77753C0.301461 0.858423 0.321684 0.908981 0.458191 1.11121C0.503694 1.18199 0.660424 1.43479 0.796931 1.66735C0.938493 1.89992 1.075 2.13754 1.11039 2.19316C1.14578 2.24877 1.19634 2.33977 1.22667 2.39539C1.25701 2.451 1.32273 2.56223 1.37835 2.64818C1.43396 2.72907 1.5098 2.86558 1.55025 2.95153C1.59069 3.03242 1.69686 3.21443 1.77776 3.35599C1.86371 3.4925 1.95471 3.65429 1.98505 3.7099C2.01538 3.76551 2.08111 3.87674 2.13166 3.96269C2.18728 4.04358 2.29345 4.22559 2.36929 4.36715C2.61702 4.81712 2.64736 4.87274 2.74342 5.02441C2.79903 5.1053 2.86476 5.22159 2.89509 5.2772C2.92543 5.33281 2.99115 5.44404 3.04677 5.52999C3.10238 5.61088 3.17822 5.74739 3.21866 5.83334C3.25911 5.91423 3.36528 6.09624 3.44617 6.2378C3.53212 6.37431 3.62313 6.5361 3.65346 6.59171C3.67874 6.64732 3.72424 6.72822 3.75458 6.76866C3.84558 6.90517 4.26016 7.62815 4.26016 7.65343C4.26016 7.66354 4.33094 7.77477 4.41183 7.89611C4.49778 8.02251 4.56351 8.13373 4.56351 8.1489C4.56351 8.16407 4.69496 8.40169 4.85675 8.6747C5.01853 8.94772 5.16515 9.20556 5.18537 9.24601C5.2056 9.28646 5.26627 9.38757 5.31682 9.47352C5.37244 9.55442 5.47861 9.73642 5.55445 9.87799C5.79713 10.3178 5.83252 10.3785 5.92858 10.5352C5.97914 10.6161 6.08025 10.788 6.14598 10.9144C6.21676 11.0408 6.31787 11.2228 6.37854 11.3189C6.43416 11.415 6.49988 11.5262 6.52011 11.5666C6.53527 11.6071 6.65156 11.7891 6.7729 11.9711C7.00547 12.3301 7.03074 12.4362 6.91446 12.5323C6.87401 12.5677 6.83862 12.6132 6.83862 12.6385C6.83862 12.6587 6.77795 12.7649 6.70717 12.871C6.63639 12.9772 6.5555 13.1086 6.53022 13.1643C6.50494 13.2199 6.43921 13.3311 6.3836 13.4171C6.32799 13.4979 6.26226 13.6142 6.23193 13.6698C6.20159 13.7255 6.13081 13.8519 6.0752 13.9479C6.01453 14.044 5.91847 14.2159 5.86285 14.3271C5.80218 14.4383 5.72635 14.5647 5.69601 14.6052C5.6404 14.676 5.40783 15.0855 5.2056 15.4647C5.15504 15.5607 5.06909 15.7073 5.01348 15.7933C4.96292 15.8742 4.90225 15.9803 4.88202 16.0208C4.84158 16.1067 4.43206 16.8196 4.36128 16.9308C4.33094 16.9713 4.28544 17.0522 4.26016 17.1078C4.22983 17.1634 4.1641 17.2746 4.10849 17.3606C4.05287 17.4415 3.9922 17.5477 3.97198 17.5881C3.95176 17.6285 3.84053 17.8207 3.7293 18.0178C3.61302 18.21 3.50684 18.4071 3.48662 18.4476C3.4664 18.488 3.40573 18.5891 3.35011 18.6751C3.2945 18.756 3.23383 18.8622 3.21361 18.9026C3.19338 18.9431 3.08216 19.1352 2.97093 19.3324C2.85465 19.5245 2.74847 19.7216 2.72825 19.7621C2.70803 19.8025 2.64736 19.9037 2.59174 19.9896C2.53613 20.0705 2.47546 20.1767 2.45524 20.2171C2.43501 20.2576 2.3339 20.4396 2.22267 20.6165C2.1165 20.7935 2.00527 20.9907 1.97999 21.0463C1.95471 21.1069 1.88899 21.2182 1.83337 21.3041C1.77776 21.385 1.71203 21.5013 1.6817 21.5569C1.65136 21.6125 1.58564 21.7237 1.53002 21.8097C1.47441 21.8906 1.37329 22.0726 1.30251 22.2142C1.23173 22.3507 1.12556 22.5327 1.075 22.6186C1.01939 22.6995 0.953661 22.8158 0.923326 22.8714C0.8576 22.9928 0.786819 23.104 0.60481 23.3871C0.528973 23.5085 0.468303 23.6247 0.468303 23.6551C0.468303 23.6905 1.19634 23.7056 2.6423 23.7056H4.81124L4.99325 23.3871C5.08931 23.2152 5.19549 23.0383 5.22076 22.9978C5.2511 22.9574 5.28649 22.8866 5.30671 22.8461C5.33705 22.7703 5.88308 21.835 5.97914 21.6833C6.00441 21.6429 6.06003 21.5367 6.10048 21.4558C6.14092 21.3698 6.24709 21.1878 6.32799 21.0513C6.41394 20.9098 6.50494 20.753 6.53022 20.6974C6.5555 20.6418 6.63639 20.5104 6.70717 20.4042C6.77795 20.298 6.83862 20.202 6.83862 20.1817C6.83862 20.1666 6.93974 19.9846 7.06613 19.7773C7.19253 19.575 7.29365 19.393 7.29365 19.3829C7.29365 19.3677 7.46554 19.0745 7.67283 18.7257C7.88012 18.3768 8.05202 18.0836 8.05202 18.0735C8.05202 18.0583 8.11269 17.9622 8.18347 17.8561C8.25425 17.7499 8.33514 17.6184 8.36042 17.5628C8.39076 17.5072 8.43626 17.4162 8.47165 17.3606C8.50704 17.305 8.62332 17.0977 8.73455 16.9056C8.84578 16.7084 8.96206 16.5062 8.99745 16.4505C9.03284 16.3949 9.07329 16.314 9.09351 16.2736C9.11374 16.2331 9.23002 16.0309 9.35136 15.8287C9.4727 15.6214 9.56876 15.4444 9.56876 15.4293C9.56876 15.4141 9.63954 15.3029 9.72043 15.1765C9.80638 15.0551 9.87211 14.9439 9.87211 14.9338C9.87211 14.9085 10.2867 14.1855 10.3777 14.049C10.408 14.0086 10.4535 13.9176 10.4788 13.8519C10.5091 13.7861 10.585 13.6597 10.6456 13.5738C10.7063 13.4878 10.8024 13.326 10.858 13.2148C10.9136 13.1036 11.0248 12.9165 11.1007 12.7952C11.3737 12.3756 11.3737 12.3705 11.1563 12.0166C11.0451 11.8396 10.9288 11.6475 10.8934 11.597C10.863 11.5413 10.8175 11.4605 10.7973 11.42C10.7619 11.3391 9.75077 9.62014 9.66988 9.4988C9.63954 9.45836 9.60415 9.38757 9.58393 9.34713C9.56876 9.30668 9.45248 9.1095 9.33114 8.90727C9.2098 8.7101 9.11374 8.53314 9.11374 8.51797C9.11374 8.50281 9.05307 8.40675 8.98229 8.30057C8.91151 8.1944 8.83061 8.06295 8.80533 8.00734C8.78005 7.95172 8.73961 7.87083 8.70927 7.83038C8.62332 7.69893 8.20369 6.96079 8.20369 6.94562C8.20369 6.92539 7.48577 5.70189 7.39476 5.55527C7.36443 5.51482 7.32904 5.44404 7.30881 5.4036C7.28859 5.36315 7.10658 5.04969 6.90435 4.70589C6.70212 4.3621 6.53527 4.07392 6.53527 4.06381C6.53527 4.04358 6.11564 3.31049 6.02969 3.17904C5.99936 3.13859 5.96397 3.06781 5.94374 3.02737C5.91341 2.96164 5.27132 1.85442 5.11965 1.61174C5.09437 1.57129 5.01348 1.41962 4.94269 1.28311C4.71013 0.838199 4.66968 0.782586 4.57868 0.747195C4.52812 0.726972 3.5574 0.706748 2.4249 0.706748C0.635145 0.701693 0.362131 0.711804 0.336852 0.77753Z" fill="white"/>
</svg>
