<svg width="390" height="44" viewBox="0 0 390 44" fill="none" xmlns="http://www.w3.org/2000/svg">
<path opacity="0.35" d="M350.5 19.9997C350.5 18.8031 351.47 17.833 352.667 17.833H369.333C370.53 17.833 371.5 18.8031 371.5 19.9997V25.9997C371.5 27.1963 370.53 28.1663 369.333 28.1663H352.667C351.47 28.1663 350.5 27.1963 350.5 25.9997V19.9997Z" fill="white" stroke="white"/>
<path opacity="0.4" d="M373 20.9997V24.9997C373.805 24.6609 374.328 23.8728 374.328 22.9997C374.328 22.1266 373.805 21.3385 373 20.9997Z" fill="white"/>
<path d="M352 20.6663C352 19.93 352.597 19.333 353.333 19.333H368.667C369.403 19.333 370 19.93 370 20.6663V25.333C370 26.0694 369.403 26.6663 368.667 26.6663H353.333C352.597 26.6663 352 26.0694 352 25.333V20.6663Z" fill="white"/>
<path fill-rule="evenodd" clip-rule="evenodd" d="M337.33 19.6079C339.546 19.608 341.677 20.4594 343.283 21.9862C343.404 22.1041 343.597 22.1026 343.716 21.9829L344.872 20.8162C344.933 20.7555 344.966 20.6733 344.966 20.5877C344.965 20.5021 344.931 20.4202 344.87 20.3602C340.655 16.3207 334.005 16.3207 329.79 20.3602C329.729 20.4202 329.694 20.502 329.693 20.5876C329.693 20.6732 329.726 20.7555 329.787 20.8162L330.943 21.9829C331.062 22.1028 331.255 22.1043 331.376 21.9862C332.982 20.4593 335.114 19.6079 337.33 19.6079ZM337.331 23.4035C338.548 23.4034 339.722 23.8559 340.625 24.6731C340.747 24.7891 340.939 24.7866 341.058 24.6675L342.213 23.5008C342.274 23.4396 342.307 23.3566 342.306 23.2703C342.306 23.1841 342.27 23.1017 342.208 23.0418C339.46 20.4854 335.204 20.4854 332.456 23.0418C332.394 23.1017 332.358 23.1841 332.357 23.2704C332.357 23.3567 332.39 23.4397 332.451 23.5008L333.606 24.6675C333.725 24.7866 333.917 24.7891 334.039 24.6731C334.941 23.8565 336.114 23.404 337.331 23.4035ZM339.644 25.9575C339.646 26.044 339.612 26.1274 339.55 26.188L337.552 28.2037C337.494 28.2629 337.414 28.2963 337.331 28.2963C337.248 28.2963 337.168 28.2629 337.109 28.2037L335.111 26.188C335.05 26.1274 335.016 26.044 335.018 25.9575C335.019 25.8709 335.057 25.789 335.121 25.731C336.397 24.6522 338.265 24.6522 339.54 25.731C339.605 25.7891 339.642 25.871 339.644 25.9575Z" fill="white"/>
<path fill-rule="evenodd" clip-rule="evenodd" d="M323.666 17.6665H322.666C322.114 17.6665 321.666 18.1142 321.666 18.6665V27.3332C321.666 27.8855 322.114 28.3332 322.666 28.3332H323.666C324.218 28.3332 324.666 27.8855 324.666 27.3332V18.6665C324.666 18.1142 324.218 17.6665 323.666 17.6665ZM318 20H319C319.552 20 320 20.4477 320 21V27.3333C320 27.8856 319.552 28.3333 319 28.3333H318C317.448 28.3333 317 27.8856 317 27.3333V21C317 20.4477 317.448 20 318 20ZM314.332 22.333H313.332C312.78 22.333 312.332 22.7807 312.332 23.333V27.333C312.332 27.8853 312.78 28.333 313.332 28.333H314.332C314.884 28.333 315.332 27.8853 315.332 27.333V23.333C315.332 22.7807 314.884 22.333 314.332 22.333ZM309.666 24.3332H308.666C308.114 24.3332 307.666 24.7809 307.666 25.3332V27.3332C307.666 27.8855 308.114 28.3332 308.666 28.3332H309.666C310.218 28.3332 310.666 27.8855 310.666 27.3332V25.3332C310.666 24.7809 310.218 24.3332 309.666 24.3332Z" fill="white"/>
<path d="M32.3203 28.2563C35.0083 28.2563 36.605 26.1543 36.605 22.5947C36.605 21.2544 36.3486 20.1265 35.8579 19.2549C35.1475 17.8999 33.9243 17.1675 32.3789 17.1675C30.0791 17.1675 28.4531 18.7129 28.4531 20.8809C28.4531 22.917 29.918 24.3965 31.9321 24.3965C33.1699 24.3965 34.1733 23.8179 34.6714 22.8145H34.6934C34.6934 22.8145 34.7227 22.8145 34.73 22.8145C34.7446 22.8145 34.7959 22.8145 34.7959 22.8145C34.7959 25.2314 33.8804 26.6743 32.335 26.6743C31.4268 26.6743 30.7236 26.1763 30.4819 25.3779H28.5996C28.9146 27.1138 30.3867 28.2563 32.3203 28.2563ZM32.3862 22.895C31.1704 22.895 30.3062 22.0308 30.3062 20.8223C30.3062 19.6431 31.2144 18.7422 32.3936 18.7422C33.5728 18.7422 34.481 19.6577 34.481 20.8516C34.481 22.0308 33.5947 22.895 32.3862 22.895Z" fill="white"/>
<path d="M39.6961 28.1538C40.3919 28.1538 40.868 27.6558 40.868 26.9966C40.868 26.3301 40.3919 25.8394 39.6961 25.8394C39.0076 25.8394 38.5242 26.3301 38.5242 26.9966C38.5242 27.6558 39.0076 28.1538 39.6961 28.1538ZM39.6961 22.6606C40.3919 22.6606 40.868 22.1699 40.868 21.5107C40.868 20.8442 40.3919 20.3535 39.6961 20.3535C39.0076 20.3535 38.5242 20.8442 38.5242 21.5107C38.5242 22.1699 39.0076 22.6606 39.6961 22.6606Z" fill="white"/>
<path d="M47.7237 28H49.5328V26.0298H50.961V24.4331H49.5328V17.4312H46.8668C44.9991 20.2437 43.5123 22.5947 42.5602 24.3452V26.0298H47.7237V28ZM44.3106 24.3672C45.5411 22.1992 46.6397 20.4634 47.6505 18.9692H47.753V24.4771H44.3106V24.3672Z" fill="white"/>
<path d="M54.9896 28H56.8793V17.4312H54.997L52.2357 19.3647V21.1812L54.8651 19.3354H54.9896V28Z" fill="white"/>
<path d="M32.3203 28.2563C35.0083 28.2563 36.605 26.1543 36.605 22.5947C36.605 21.2544 36.3486 20.1265 35.8579 19.2549C35.1475 17.8999 33.9243 17.1675 32.3789 17.1675C30.0791 17.1675 28.4531 18.7129 28.4531 20.8809C28.4531 22.917 29.918 24.3965 31.9321 24.3965C33.1699 24.3965 34.1733 23.8179 34.6714 22.8145H34.6934C34.6934 22.8145 34.7227 22.8145 34.73 22.8145C34.7446 22.8145 34.7959 22.8145 34.7959 22.8145C34.7959 25.2314 33.8804 26.6743 32.335 26.6743C31.4268 26.6743 30.7236 26.1763 30.4819 25.3779H28.5996C28.9146 27.1138 30.3867 28.2563 32.3203 28.2563ZM32.3862 22.895C31.1704 22.895 30.3062 22.0308 30.3062 20.8223C30.3062 19.6431 31.2144 18.7422 32.3936 18.7422C33.5728 18.7422 34.481 19.6577 34.481 20.8516C34.481 22.0308 33.5947 22.895 32.3862 22.895Z" stroke="white"/>
<path d="M39.6961 28.1538C40.3919 28.1538 40.868 27.6558 40.868 26.9966C40.868 26.3301 40.3919 25.8394 39.6961 25.8394C39.0076 25.8394 38.5242 26.3301 38.5242 26.9966C38.5242 27.6558 39.0076 28.1538 39.6961 28.1538ZM39.6961 22.6606C40.3919 22.6606 40.868 22.1699 40.868 21.5107C40.868 20.8442 40.3919 20.3535 39.6961 20.3535C39.0076 20.3535 38.5242 20.8442 38.5242 21.5107C38.5242 22.1699 39.0076 22.6606 39.6961 22.6606Z" stroke="white"/>
<path d="M47.7237 28H49.5328V26.0298H50.961V24.4331H49.5328V17.4312H46.8668C44.9991 20.2437 43.5123 22.5947 42.5602 24.3452V26.0298H47.7237V28ZM44.3106 24.3672C45.5411 22.1992 46.6397 20.4634 47.6505 18.9692H47.753V24.4771H44.3106V24.3672Z" stroke="white"/>
<path d="M54.9896 28H56.8793V17.4312H54.997L52.2357 19.3647V21.1812L54.8651 19.3354H54.9896V28Z" stroke="white"/>
</svg>
