<svg width="18" height="24" viewBox="0 0 18 24" fill="none" xmlns="http://www.w3.org/2000/svg">
<path d="M7.62676 0.747126C7.00489 0.76735 6.71165 0.797684 6.65604 0.843187C6.61559 0.878577 6.51448 1.03025 6.43864 1.17181C6.24652 1.53583 6.17574 1.66223 6.06451 1.83918C6.01395 1.92007 5.90778 2.10208 5.83194 2.24365C5.75611 2.38015 5.67016 2.54194 5.63982 2.59755C5.57915 2.70372 5.37692 3.03741 5.26569 3.20425C5.23536 3.25986 5.18986 3.34076 5.16963 3.3812C5.14941 3.42165 5.04324 3.61377 4.92695 3.81095C4.81573 4.00307 4.7045 4.20024 4.68428 4.24069C4.66405 4.28114 4.60338 4.38225 4.54777 4.4682C4.49215 4.54909 4.42643 4.66538 4.39609 4.72099C4.36576 4.77661 4.27476 4.93334 4.18881 5.0749C4.10791 5.21141 4.00174 5.39342 3.96129 5.47936C3.92085 5.56026 3.84501 5.69676 3.7894 5.78271C3.73378 5.86361 3.67311 5.96978 3.65289 6.01022C3.63267 6.05067 3.52144 6.24279 3.41021 6.43997C3.29393 6.63209 3.18776 6.82926 3.16753 6.86971C3.14731 6.91016 3.08664 7.01127 3.03103 7.09722C2.97541 7.17812 2.90969 7.2944 2.87935 7.35001C2.84902 7.40563 2.78329 7.51686 2.72768 7.6028C2.63162 7.75448 2.60128 7.81009 2.35355 8.26006C2.27771 8.39657 2.17154 8.57858 2.12098 8.66452C2.01986 8.82631 1.95414 8.93754 1.75696 9.2965C1.64068 9.51896 1.45361 9.82736 1.32216 10.0296C1.29183 10.0852 1.24633 10.1661 1.2261 10.2065C1.20588 10.247 1.1351 10.3734 1.06432 10.4846C0.993535 10.5958 0.882307 10.788 0.816581 10.9093C0.750856 11.0306 0.64974 11.2025 0.599181 11.2885C0.548623 11.3744 0.482898 11.4907 0.452563 11.5463C0.422228 11.6019 0.356503 11.7132 0.300889 11.7991C0.245275 11.88 0.179549 12.0014 0.15427 12.062C0.128991 12.1176 0.0784331 12.1834 0.0531541 12.2036C-0.0277389 12.2491 -0.0125714 12.4614 0.0733773 12.5322C0.113824 12.5676 0.149214 12.6131 0.149214 12.6384C0.149214 12.6586 0.209884 12.7648 0.280666 12.871C0.351447 12.9771 0.43234 13.1086 0.457619 13.1642C0.482898 13.2198 0.548623 13.331 0.599181 13.417C0.654795 13.4979 0.740744 13.6496 0.791302 13.7456C0.9632 14.0591 1.11487 14.322 1.21599 14.4787C1.26655 14.5596 1.33227 14.6759 1.35755 14.7366C1.38283 14.7922 1.49406 14.9893 1.60023 15.1663C1.71146 15.3432 1.81258 15.5253 1.8328 15.5657C1.85302 15.6062 1.91369 15.7073 1.96425 15.7932C2.01986 15.8741 2.12604 16.0561 2.20187 16.1977C2.44961 16.6476 2.47994 16.7033 2.576 16.8549C2.63162 16.9358 2.69734 17.0521 2.72768 17.1077C2.75801 17.1633 2.82374 17.2746 2.87935 17.3605C2.93497 17.4414 3.0108 17.5779 3.05125 17.6639C3.0917 17.7448 3.19787 17.9268 3.27876 18.0683C3.36471 18.2048 3.45571 18.3666 3.48605 18.4222C3.51638 18.4779 3.56694 18.5689 3.60233 18.6245C3.63772 18.6801 3.75401 18.8874 3.86523 19.0795C3.97646 19.2767 4.09275 19.4789 4.12814 19.5345C4.16353 19.5901 4.21409 19.6811 4.24442 19.7367C4.27476 19.7924 4.34048 19.9036 4.39609 19.9895C4.45171 20.0704 4.51238 20.1766 4.5326 20.217C4.55282 20.2575 4.659 20.4496 4.77528 20.6468C4.88651 20.8389 4.99774 21.0361 5.01796 21.0765C5.03818 21.117 5.08368 21.1979 5.11908 21.2535C5.15447 21.3091 5.27075 21.5164 5.38198 21.7085C5.4932 21.9057 5.60949 22.1079 5.64488 22.1635C5.68027 22.2191 5.73083 22.3102 5.76116 22.3658C5.78644 22.4214 5.89261 22.6034 5.98867 22.7702C6.08473 22.9371 6.19091 23.1191 6.21619 23.1747C6.24652 23.2303 6.32236 23.3668 6.38303 23.478L6.49426 23.6803L9.91198 23.6954C12.7331 23.7056 13.3398 23.6954 13.3904 23.6398C13.4207 23.5994 13.5218 23.4224 13.6128 23.2455C14.1488 22.2242 14.5532 21.481 14.7302 21.1777C14.7908 21.0816 14.8818 20.9097 14.9375 20.7985C14.988 20.6872 15.0992 20.5002 15.1751 20.3839C15.2964 20.2019 15.352 20.0452 15.3065 20.0047C15.2964 19.9996 13.8151 19.9794 12.0152 19.9643L8.73903 19.939L8.64803 19.8176C8.59747 19.7519 8.49636 19.58 8.42052 19.4385C8.34468 19.2969 8.23851 19.1098 8.18795 19.0289C8.13234 18.943 8.07167 18.8419 8.05144 18.8014C8.03122 18.761 7.88966 18.5082 7.73293 18.2453C7.5762 17.9824 7.43464 17.7296 7.41441 17.6891C7.39419 17.6487 7.33352 17.5425 7.27791 17.4616C7.22229 17.3757 7.16162 17.2746 7.1414 17.2341C7.11106 17.1684 6.42347 15.9904 6.3173 15.8185C6.29202 15.778 6.21113 15.6264 6.13529 15.4899C6.06451 15.3483 5.95834 15.1764 5.90778 15.1056C5.85722 15.0298 5.7915 14.9186 5.76116 14.8528C5.73588 14.7871 5.62971 14.6203 5.53365 14.4838C5.40726 14.3068 5.36681 14.2209 5.40726 14.1804C5.44265 14.145 7.15657 14.1349 10.9636 14.145C17.2277 14.1602 16.6716 14.2006 16.9143 13.7203C16.9851 13.5838 17.071 13.422 17.1013 13.3664C17.5968 12.5221 17.6423 12.4362 17.612 12.2845C17.5918 12.1985 17.5463 12.1025 17.5109 12.0721C17.4704 12.0418 17.4401 11.9963 17.4401 11.971C17.4401 11.9457 17.3794 11.8295 17.3036 11.7081C17.1367 11.4503 16.9598 11.1469 16.8536 10.9396C16.7222 10.6767 16.6514 10.5655 16.5604 10.4644C16.4744 10.3683 16.348 10.3683 11.0799 10.3936C6.5802 10.4138 5.67016 10.4088 5.59432 10.3532C5.51343 10.2874 5.51848 10.2622 5.69038 9.97903C5.7915 9.81219 5.93306 9.56446 6.0089 9.43301C6.07968 9.30156 6.21113 9.05888 6.30213 8.90215C6.39314 8.74542 6.52459 8.49768 6.59537 8.36118C6.66615 8.21961 6.74705 8.07299 6.77232 8.03255C6.86333 7.88593 7.25768 7.19834 7.29307 7.1225C7.3133 7.08206 7.36891 6.97588 7.41947 6.89499C7.47003 6.80904 7.61159 6.56131 7.73293 6.33885C7.85427 6.1164 7.99077 5.86361 8.04133 5.78271C8.08684 5.69676 8.22334 5.44397 8.34468 5.21646C8.46602 4.98895 8.60758 4.74122 8.66825 4.66538L8.77443 4.52887L11.631 4.50865C14.8111 4.48843 15.3166 4.4682 15.3166 4.36709C15.3166 4.32664 15.2964 4.28114 15.2661 4.26597C15.2256 4.24069 14.4925 3.03741 14.3864 2.82506C14.3662 2.78462 14.3257 2.70372 14.2903 2.64811C14.2549 2.5925 14.1235 2.36499 13.987 2.14253C13.8555 1.92007 13.7291 1.70267 13.7038 1.66223C13.6786 1.62178 13.6432 1.551 13.628 1.51055C13.6078 1.47011 13.5522 1.36394 13.4966 1.28304C13.4409 1.19709 13.3752 1.08587 13.3499 1.03025C13.3247 0.974638 13.2589 0.883633 13.1983 0.828019C13.0921 0.737015 12.991 0.731959 10.8018 0.721847C9.54291 0.721847 8.11717 0.731959 7.62676 0.747126Z" fill="white"/>
</svg>
